<svg width="808" height="167" viewBox="0 0 808 167" fill="none" xmlns="http://www.w3.org/2000/svg">
<g clip-path="url(#clip0_2248_609)">
<path d="M2.95 95.47C2.95 70.7712 2.23273 46.2189 0.791928 32.6329C0.464142 29.5421 2.84897 26.74 5.95714 26.74H49.88C89.94 26.74 98.98 42.84 98.98 62.09C98.98 81.167 86.0555 92.1318 68.4306 93.4758C68.1617 93.4963 67.95 93.7197 67.95 93.9894C67.95 94.2677 68.1763 94.495 68.4545 94.5032C94.0915 95.2641 110.96 109.343 110.96 128.07C110.96 149.87 99.18 164.2 55.19 164.2H5.84006C2.77153 164.2 0.412086 161.465 0.727986 158.413C2.20498 144.143 2.95 119.656 2.95 95.47ZM45.76 86.44C64.22 86.44 77.77 79.37 77.77 64.05C77.77 50.3 70.5 42.84 46.55 42.84H30.54C27.7786 42.84 25.54 45.0786 25.54 47.84V81.44C25.54 84.2014 27.7786 86.44 30.54 86.44H45.77H45.76ZM51.265 148.105C51.2632 148.103 51.2646 148.1 51.2672 148.1C78.7516 148.099 88.18 141.229 88.18 126.11C88.18 109.03 71.68 101.37 49.3 101.37H30.54C27.7786 101.37 25.54 103.609 25.54 106.37V143.11C25.54 145.871 27.7786 148.11 30.54 148.11H51.2629C51.2655 148.11 51.2668 148.107 51.265 148.105Z" fill="#F54748"/>
<path d="M182.239 64.4399C217.199 64.4399 242.329 81.5299 242.329 115.5C242.329 149.47 217.189 166.56 182.239 166.56C147.289 166.56 121.949 148.1 121.949 115.5C121.949 82.8999 147.089 64.4399 182.239 64.4399ZM182.239 149.87C202.469 149.87 219.359 138.09 219.359 115.31C219.359 92.5299 202.469 80.5499 182.239 80.5499C162.009 80.5499 144.929 92.5299 144.929 115.31C144.929 138.09 162.009 149.87 182.239 149.87Z" fill="#F54748"/>
<path d="M316.95 64.4399C351.91 64.4399 377.04 81.5299 377.04 115.5C377.04 149.47 351.9 166.56 316.95 166.56C282 166.56 256.66 148.1 256.66 115.5C256.66 82.8999 281.8 64.4399 316.95 64.4399ZM316.95 149.87C337.18 149.87 354.07 138.09 354.07 115.31C354.07 92.5299 337.18 80.5499 316.95 80.5499C296.72 80.5499 279.64 92.5299 279.64 115.31C279.64 138.09 296.73 149.87 316.95 149.87Z" fill="#F54748"/>
<path d="M422.805 23.7948C422.803 23.7928 422.799 23.7936 422.799 23.7964C420.84 34.992 420.25 66.6055 420.25 95.47V97.9019C420.25 102.15 425.216 104.475 428.471 101.746C441.684 90.6695 458.427 76.4027 464.32 68.6411C465.476 67.1191 467.222 66.02 469.133 66.02H481.455C486.062 66.02 488.189 71.6827 484.706 74.698C476.579 81.7336 466.562 90.4346 454.283 101.758C452.365 103.527 452.14 106.472 453.729 108.541C464.349 122.366 477.459 141.48 489.033 155.21C491.914 158.628 489.523 164.21 485.053 164.21H471.71C469.498 164.21 467.521 162.757 466.52 160.783C462.054 151.979 449.493 134.455 438.183 119.955C436.445 117.727 433.207 117.415 431.054 119.243L422.472 126.532C421.32 127.511 420.672 128.96 420.713 130.472C421.012 141.424 421.427 151.233 422.106 158.402C422.396 161.461 420.03 164.21 416.957 164.21H402.34C399.272 164.21 396.91 161.475 397.209 158.421C398.606 144.15 399.05 119.665 399.05 95.48C399.05 71.23 398.604 45.6332 397.198 32.0154C396.902 29.1479 398.921 26.4786 401.786 26.1574L422.803 23.8009C422.806 23.8005 422.807 23.7969 422.805 23.7948Z" fill="#F54748"/>
<path d="M612.88 164.2C612.885 164.2 612.889 164.196 612.887 164.191C608.402 151.132 594.278 111.645 585.044 89.1567C584.891 88.7852 584.881 88.3804 585.01 88C577 108.759 563.247 145.215 557.532 160.904C556.809 162.889 554.931 164.2 552.819 164.2H536.79C534.029 164.2 531.671 161.971 531.154 159.258C527.843 141.905 512.439 93.9195 504.431 73.5771C503.055 70.0799 505.656 66.01 509.414 66.01H521.196C523.67 66.01 525.779 67.8121 526.31 70.2289C529.03 82.6117 536.683 107.875 543.256 129.457C544.642 134.01 551.026 134.245 552.754 129.81C561.335 107.777 571.129 82.8072 575.107 69.7246C575.771 67.541 577.756 66.01 580.038 66.01H589.793C592.061 66.01 594.038 67.5229 594.721 69.6855C598.667 82.1821 608.253 105.731 616.451 127.079C618.193 131.614 624.898 131.366 626.321 126.721C632.566 106.342 640.394 82.7436 642.555 70.9609C643.053 68.2448 645.369 66.01 648.13 66.01H657.803C661.863 66.01 664.645 70.8577 663.121 74.6202C659.958 82.4286 656.272 94.3185 650.98 111.37C644.858 130.058 638.877 149.022 637.028 159.357C636.55 162.03 634.282 164.2 631.567 164.2H612.88Z" fill="#343F56"/>
<path d="M704.795 115.11C704.797 115.11 704.8 115.112 704.8 115.115C704.8 128.578 704.8 142.049 706.24 158.688C706.496 161.639 704.186 164.2 701.224 164.2H687.035C684.048 164.2 681.732 161.597 682.012 158.623C683.552 142.276 683.39 128.531 683.39 115.11C683.39 101.696 683.551 88.2733 683.01 71.7104C682.911 68.6911 685.468 66.2782 688.479 66.5277C690.429 66.6894 692.238 66.8 693.99 66.8C695.89 66.8 697.793 66.687 699.85 66.5203C702.878 66.2748 705.439 68.7223 705.313 71.758C704.637 88.1611 704.79 101.71 704.79 115.105C704.79 115.108 704.792 115.11 704.795 115.11Z" fill="#343F56"/>
<path d="M722.677 151.44C722.674 151.44 722.673 151.437 722.674 151.435C736.515 135.171 756.144 109.308 771.362 88.6142C773.802 85.2956 771.382 80.6468 767.265 80.7726C751.577 81.252 739.92 82.2449 732.294 83.1467C728.902 83.5477 725.989 80.6055 726.539 77.2348L727.685 70.2144C728.08 67.796 730.169 66.02 732.62 66.02H799.37C802.131 66.02 804.37 68.2586 804.37 71.02V77.1528C804.37 78.3328 803.955 79.4691 803.201 80.3769C791.059 95.0017 771.441 121.934 756.488 141.631C753.955 144.968 756.369 149.779 760.557 149.669C778.78 149.193 792.124 148.163 800.431 147.239C803.828 146.86 806.744 149.822 806.187 153.194L805.061 160.014C804.662 162.429 802.575 164.2 800.128 164.2H727.68C724.919 164.2 722.68 161.961 722.68 159.2V151.443C722.68 151.441 722.679 151.44 722.677 151.44Z" fill="#343F56"/>
<path d="M704.231 11.02L698.201 14.32C698.091 14.38 698.011 14.47 697.951 14.57L694.651 20.6C694.411 21.04 693.781 21.04 693.541 20.6L690.241 14.57C690.181 14.46 690.091 14.38 689.991 14.32L683.961 11.02C683.521 10.78 683.521 10.15 683.961 9.91L689.991 6.61C690.101 6.55 690.181 6.46 690.241 6.36L693.541 0.33C693.781 -0.11 694.411 -0.11 694.651 0.33L697.951 6.36C698.011 6.47 698.101 6.55 698.201 6.61L704.231 9.91C704.671 10.15 704.671 10.78 704.231 11.02Z" fill="#343F56"/>
<path d="M680.22 26.2L676.1 28.46C676.03 28.5 675.97 28.56 675.93 28.63L673.67 32.75C673.51 33.05 673.07 33.05 672.91 32.75L670.65 28.63C670.61 28.56 670.55 28.5 670.48 28.46L666.36 26.2C666.06 26.04 666.06 25.6 666.36 25.44L670.48 23.18C670.55 23.14 670.61 23.08 670.65 23.01L672.91 18.89C673.07 18.59 673.51 18.59 673.67 18.89L675.93 23.01C675.97 23.08 676.03 23.14 676.1 23.18L680.22 25.44C680.52 25.6 680.52 26.04 680.22 26.2Z" fill="#343F56"/>
<path d="M717.171 26.0799L714.351 27.6199C714.351 27.6199 714.261 27.6899 714.231 27.7399L712.691 30.5599C712.581 30.7699 712.281 30.7699 712.171 30.5599L710.631 27.7399C710.631 27.7399 710.561 27.6499 710.511 27.6199L707.691 26.0799C707.481 25.9699 707.481 25.6699 707.691 25.5599L710.511 24.0199C710.511 24.0199 710.601 23.9499 710.631 23.8999L712.171 21.0799C712.281 20.8699 712.581 20.8699 712.691 21.0799L714.231 23.8999C714.231 23.8999 714.301 23.9899 714.351 24.0199L717.171 25.5599C717.381 25.6699 717.381 25.9699 717.171 26.0799Z" fill="#343F56"/>
<path d="M700.071 36.49H688.141C685.379 36.49 683.141 38.7286 683.141 41.49V53.42C683.141 56.1814 685.379 58.42 688.141 58.42H700.071C702.832 58.42 705.071 56.1814 705.071 53.42V41.49C705.071 38.7286 702.832 36.49 700.071 36.49Z" fill="#F54748"/>
</g>
<defs>
<clipPath id="clip0_2248_609">
<rect width="807.31" height="166.56" fill="white"/>
</clipPath>
</defs>
</svg>
